<svg width="177" height="54" viewBox="0 0 177 54" fill="none" xmlns="http://www.w3.org/2000/svg">
<path d="M0.600006 36.5682C1.53601 36.5336 2.24667 36.4296 2.73201 36.2562C3.21734 36.0482 3.59867 35.6322 3.87601 35.0082C4.15334 34.3842 4.29201 33.3962 4.29201 32.0442V12.1282C4.29201 10.1869 4.36134 8.62689 4.50001 7.44822L0.600006 7.60422V3.60022H26.6L26.912 13.6882H23.48C23.48 11.1229 22.856 9.35488 21.608 8.38422C20.3947 7.37889 18.9213 6.91088 17.188 6.98022L15.316 7.03222C14.484 7.06689 13.8253 7.18822 13.34 7.39622C12.8547 7.56955 12.4733 7.98555 12.196 8.64422C11.9533 9.30288 11.832 10.2736 11.832 11.5562V20.6042H17.188C17.1533 20.1536 17.084 18.6629 16.98 16.1322H20.984V28.7682H17.552C17.552 27.3816 17.3267 26.3589 16.876 25.7002C16.46 25.0069 15.888 24.5736 15.16 24.4002C14.4667 24.2269 13.5653 24.1576 12.456 24.1922H11.832V31.4722C11.832 33.4136 11.7627 34.9736 11.624 36.1522C12.7333 36.0482 14.276 35.9962 16.252 35.9962V40.0002H0.600006V36.5682Z" fill="white"/>
<path d="M29.0773 36.6202C30.3947 36.6202 31.2266 36.2562 31.5733 35.5282C31.9546 34.8002 32.1453 33.6216 32.1453 31.9922V23.2562C32.1453 21.6962 32.2147 20.2229 32.3533 18.8362L28.7133 18.9922V15.0402C30.8973 15.0402 32.6653 14.8842 34.0173 14.5722C35.3693 14.2602 36.2707 13.8962 36.7213 13.4802H39.2693C39.3387 14.0002 39.3907 14.6762 39.4253 15.5082C39.46 16.3402 39.4773 17.1549 39.4773 17.9522H39.5813C41.9387 14.7629 44.4347 13.1682 47.0693 13.1682C48.3867 13.1682 49.4613 13.5322 50.2933 14.2602C51.16 14.9882 51.5933 16.0629 51.5933 17.4842C51.5933 18.3856 51.2987 19.2176 50.7093 19.9802C50.12 20.7429 49.236 21.1242 48.0573 21.1242C47.1907 21.1242 46.4107 20.8989 45.7173 20.4482C45.0587 19.9976 44.6773 19.2176 44.5733 18.1082C43.6027 18.1082 42.5973 18.6802 41.5573 19.8242C40.552 20.9336 39.876 22.0429 39.5293 23.1522V31.6282C39.5293 33.2922 39.46 34.8175 39.3213 36.2042C40.4307 36.1002 41.5573 36.0482 42.7013 36.0482V40.0002H29.0773V36.6202Z" fill="white"/>
<path d="M61.3937 8.85222C60.215 8.85222 59.2444 8.45355 58.4817 7.65622C57.719 6.82422 57.3377 5.81888 57.3377 4.64022C57.3377 3.46155 57.7364 2.45622 58.5337 1.62422C59.331 0.757552 60.267 0.324219 61.3417 0.324219C62.451 0.324219 63.3697 0.740218 64.0977 1.57222C64.8604 2.40422 65.2417 3.42688 65.2417 4.64022C65.2417 5.85355 64.8777 6.85888 64.1497 7.65622C63.4564 8.45355 62.5377 8.85222 61.3937 8.85222ZM54.0617 36.6202C55.379 36.6202 56.211 36.2562 56.5577 35.5282C56.939 34.8002 57.1297 33.6216 57.1297 31.9922V23.3602C57.1297 21.7309 57.199 20.2229 57.3377 18.8362L53.6977 18.9922V15.0402C55.8817 15.0402 57.6497 14.8842 59.0017 14.5722C60.3537 14.2602 61.255 13.8962 61.7057 13.4802H64.5137V31.6282C64.5137 33.2922 64.4444 34.8175 64.3057 36.2042C65.415 36.1002 66.5417 36.0482 67.6857 36.0482V40.0002H54.0617V36.6202Z" fill="white"/>
<path d="M83.0334 40.8322C81.5427 40.8322 80.0867 40.6415 78.6654 40.2602C77.2441 39.8789 76.1348 39.3936 75.3374 38.8042H75.2854L75.4414 40.3642H71.4894L71.2814 31.4202H74.6614C74.8347 33.0149 75.6668 34.3669 77.1574 35.4762C78.6828 36.5509 80.5374 37.0882 82.7214 37.0882C83.6921 37.0882 84.5241 36.8629 85.2174 36.4122C85.9454 35.9615 86.3094 35.3202 86.3094 34.4882C86.3094 33.8642 86.0841 33.3442 85.6334 32.9282C85.1827 32.5122 84.6454 32.1656 84.0214 31.8882C83.3974 31.6109 82.1494 31.1082 80.2774 30.3802C78.0587 29.5136 76.3947 28.8029 75.2854 28.2482C74.1761 27.6936 73.1708 26.8789 72.2694 25.8042C71.4028 24.6949 70.9694 23.2736 70.9694 21.5402C70.9694 20.1189 71.3161 18.7842 72.0094 17.5362C72.7374 16.2536 73.8294 15.2136 75.2854 14.4162C76.7761 13.5842 78.5961 13.1682 80.7454 13.1682C81.7507 13.1682 82.8427 13.3242 84.0214 13.6362C85.2001 13.9482 86.1881 14.3816 86.9854 14.9362H87.0374L86.9854 13.4282H90.9374V22.6322H87.5574C87.2454 20.8296 86.4481 19.4082 85.1654 18.3682C83.8827 17.3282 82.3054 16.8082 80.4334 16.8082C79.4628 16.8082 78.6481 17.0336 77.9894 17.4842C77.3308 17.9349 77.0014 18.6282 77.0014 19.5642C77.0014 20.5349 77.3827 21.2629 78.1454 21.7482C78.9081 22.1989 80.1907 22.7189 81.9934 23.3082C82.2014 23.3429 82.6521 23.4816 83.3454 23.7242C86.2921 24.7642 88.5454 25.9776 90.1054 27.3642C91.7001 28.7509 92.4974 30.5709 92.4974 32.8242C92.4974 34.5576 92.0467 36.0309 91.1454 37.2442C90.2787 38.4229 89.1174 39.3242 87.6614 39.9482C86.2401 40.5376 84.6974 40.8322 83.0334 40.8322Z" fill="white"/>
<path d="M95.7917 49.8802C97.109 49.8802 97.9584 49.5162 98.3397 48.7882C98.721 48.0602 98.9117 46.8816 98.9117 45.2522V23.2562C98.9117 21.6962 98.981 20.2229 99.1197 18.8362L95.4277 18.9922V15.0402C97.6117 15.0402 99.3797 14.8842 100.732 14.5722C102.084 14.2602 102.985 13.8962 103.436 13.4802H105.984C106.053 14.0696 106.14 14.9016 106.244 15.9762H106.296C108.445 14.1042 110.768 13.1682 113.264 13.1682C115.344 13.1682 117.164 13.7056 118.724 14.7802C120.318 15.8549 121.549 17.3975 122.416 19.4082C123.317 21.3842 123.768 23.6895 123.768 26.3242C123.768 29.0976 123.23 31.5936 122.156 33.8122C121.081 35.9962 119.556 37.7122 117.58 38.9602C115.638 40.2082 113.402 40.8322 110.872 40.8322C109.52 40.8322 107.977 40.5202 106.244 39.8962V44.8882C106.244 46.3789 106.192 47.9042 106.088 49.4642C107.162 49.3602 108.272 49.3082 109.416 49.3082V53.2602H95.7917V49.8802ZM109.832 36.9322C114.026 36.9322 116.124 33.6562 116.124 27.1042C116.124 24.5389 115.656 22.3549 114.72 20.5522C113.818 18.7496 112.449 17.8482 110.612 17.8482C109.745 17.8482 108.913 18.0562 108.116 18.4722C107.353 18.8882 106.729 19.4429 106.244 20.1362V35.9962C106.59 36.2389 107.093 36.4642 107.752 36.6722C108.445 36.8456 109.138 36.9322 109.832 36.9322Z" fill="white"/>
<path d="M139.866 40.8322C137.335 40.8322 135.099 40.2776 133.158 39.1682C131.217 38.0242 129.709 36.4122 128.634 34.3322C127.559 32.2522 127.022 29.8256 127.022 27.0522C127.022 24.6256 127.559 22.3549 128.634 20.2402C129.743 18.0909 131.286 16.3749 133.262 15.0922C135.238 13.8096 137.491 13.1682 140.022 13.1682C143.385 13.1682 146.175 14.1562 148.394 16.1322C150.647 18.1082 151.757 21.4016 151.722 26.0122L134.666 26.3242C134.666 29.3749 135.238 31.7842 136.382 33.5522C137.561 35.3202 139.433 36.2042 141.998 36.2042C143.211 36.2042 144.511 35.8922 145.898 35.2682C147.285 34.6442 148.533 33.6562 149.642 32.3042L151.982 34.4882C149.035 38.7176 144.997 40.8322 139.866 40.8322ZM144.546 22.6842C144.442 18.7669 143.021 16.8082 140.282 16.8082C138.791 16.8082 137.595 17.3456 136.694 18.4202C135.827 19.4602 135.255 20.8816 134.978 22.6842H144.546Z" fill="white"/>
<path d="M167.483 40.8322C165.992 40.8322 164.536 40.6415 163.115 40.2602C161.693 39.8789 160.584 39.3936 159.787 38.8042H159.735L159.891 40.3642H155.939L155.731 31.4202H159.111C159.284 33.0149 160.116 34.3669 161.607 35.4762C163.132 36.5509 164.987 37.0882 167.171 37.0882C168.141 37.0882 168.973 36.8629 169.667 36.4122C170.395 35.9615 170.759 35.3202 170.759 34.4882C170.759 33.8642 170.533 33.3442 170.083 32.9282C169.632 32.5122 169.095 32.1656 168.471 31.8882C167.847 31.6109 166.599 31.1082 164.727 30.3802C162.508 29.5136 160.844 28.8029 159.735 28.2482C158.625 27.6936 157.62 26.8789 156.719 25.8042C155.852 24.6949 155.419 23.2736 155.419 21.5402C155.419 20.1189 155.765 18.7842 156.459 17.5362C157.187 16.2536 158.279 15.2136 159.735 14.4162C161.225 13.5842 163.045 13.1682 165.195 13.1682C166.2 13.1682 167.292 13.3242 168.471 13.6362C169.649 13.9482 170.637 14.3816 171.435 14.9362H171.487L171.435 13.4282H175.387V22.6322H172.007C171.695 20.8296 170.897 19.4082 169.615 18.3682C168.332 17.3282 166.755 16.8082 164.883 16.8082C163.912 16.8082 163.097 17.0336 162.439 17.4842C161.78 17.9349 161.451 18.6282 161.451 19.5642C161.451 20.5349 161.832 21.2629 162.595 21.7482C163.357 22.1989 164.64 22.7189 166.443 23.3082C166.651 23.3429 167.101 23.4816 167.795 23.7242C170.741 24.7642 172.995 25.9776 174.555 27.3642C176.149 28.7509 176.947 30.5709 176.947 32.8242C176.947 34.5576 176.496 36.0309 175.595 37.2442C174.728 38.4229 173.567 39.3242 172.111 39.9482C170.689 40.5376 169.147 40.8322 167.483 40.8322Z" fill="white"/>
</svg>
